<svg width="235" height="107" viewBox="0 0 235 107" fill="none" xmlns="http://www.w3.org/2000/svg">
<g clip-path="url(#clip0_22_365)">
<g clip-path="url(#clip1_22_365)">
<path d="M70.9962 41.616V51.1845H62.1819V41.616H58V64.4574H62.183V55.1994H70.9951V64.4574H75.1792V41.616H70.9962ZM88.5683 57.0747C88.5683 57.9902 88.2036 58.8682 87.5545 59.5156C86.9054 60.163 86.025 60.5267 85.107 60.5267C84.189 60.5267 83.3086 60.163 82.6595 59.5156C82.0103 58.8682 81.6457 57.9902 81.6457 57.0747V47.2905H77.6777V57.0747C77.6777 59.0378 78.4597 60.9205 79.8516 62.3086C81.2434 63.6968 83.1312 64.4766 85.0996 64.4766C87.068 64.4766 88.9558 63.6968 90.3477 62.3086C91.7396 60.9205 92.5215 59.0378 92.5215 57.0747V47.2905H88.5683V57.0747ZM117.969 48.2987C117.969 46.2924 119.3 45.6568 120.757 45.6568C121.932 45.6568 123.483 46.5487 124.498 47.6303L127.096 44.5752C125.799 42.8252 123.168 41.616 121.014 41.616C116.708 41.616 113.595 44.1303 113.595 48.2987C113.595 56.0326 123.073 53.5781 123.073 57.9068C123.073 59.2413 121.773 60.42 120.286 60.42C117.939 60.42 117.178 59.2763 116.1 58.066L113.216 61.0568C115.061 63.3148 117.337 64.4619 120.062 64.4619C124.152 64.4619 127.442 61.9171 127.442 57.9384C127.442 49.3532 117.963 52.0211 117.963 48.2987M176.604 60.8084C174.26 60.8084 173.593 59.7968 173.593 58.2477V51.3889H177.238V47.9137H173.593V43.3287L169.569 45.1295V59.1002C169.569 62.6735 172.042 64.4744 175.431 64.4744C175.963 64.4834 176.495 64.4405 177.018 64.3479L178 60.744C177.557 60.7745 177.049 60.805 176.604 60.805M103.672 47.4045C101.707 47.4045 100.335 47.9735 99.0083 49.2708V41.7526H95.0347V55.6882C95.0347 60.9044 98.8158 64.4789 103.066 64.4789C107.78 64.4789 111.926 60.8411 111.926 55.9434C111.926 51.1066 108.11 47.4079 103.672 47.4079M103.648 60.49C103.055 60.49 102.469 60.3737 101.922 60.1476C101.375 59.9216 100.878 59.5903 100.459 59.1727C100.04 58.7551 99.7078 58.2593 99.4812 57.7136C99.2546 57.168 99.1379 56.5831 99.1379 55.9925C99.1379 55.4019 99.2546 54.817 99.4812 54.2714C99.7078 53.7257 100.04 53.2299 100.459 52.8123C100.878 52.3947 101.375 52.0634 101.922 51.8374C102.469 51.6113 103.055 51.495 103.648 51.495C104.844 51.495 105.991 51.9688 106.836 52.8123C107.682 53.6557 108.157 54.7997 108.157 55.9925C108.157 57.1853 107.682 58.3293 106.836 59.1727C105.991 60.0162 104.844 60.49 103.648 60.49ZM146.827 55.7356C146.827 50.8289 142.689 47.2002 137.966 47.2002C133.718 47.2002 129.935 50.7735 129.935 55.9908V69.9344H133.909V62.406C135.234 63.701 136.608 64.2723 138.571 64.2723C143.009 64.2723 146.827 60.5735 146.827 55.7356ZM143.064 55.686C143.064 56.8788 142.589 58.0227 141.743 58.8662C140.898 59.7096 139.751 60.1835 138.555 60.1835C137.359 60.1835 136.211 59.7096 135.366 58.8662C134.52 58.0227 134.045 56.8788 134.045 55.686C134.045 54.4932 134.52 53.3492 135.366 52.5058C136.211 51.6623 137.359 51.1885 138.555 51.1885C139.751 51.1885 140.898 51.6623 141.743 52.5058C142.589 53.3492 143.064 54.4932 143.064 55.686Z" fill="#33475B"/>
<path d="M159.667 47.0081V43.026C160.195 42.7801 160.642 42.3898 160.955 41.9004C161.269 41.4111 161.437 40.843 161.44 40.2622V40.1707C161.44 38.4772 160.063 37.1043 158.365 37.1043H158.274C157.458 37.1043 156.676 37.4273 156.099 38.0024C155.523 38.5775 155.199 39.3574 155.199 40.1707V40.2622C155.201 40.843 155.37 41.4111 155.683 41.9004C155.997 42.3898 156.444 42.7801 156.972 43.026V47.0081C155.455 47.2397 154.027 47.8668 152.832 48.8259L141.881 40.3197C141.959 40.0386 142 39.7496 142.004 39.4594C142.006 38.776 141.804 38.1076 141.424 37.5386C141.045 36.9697 140.504 36.5258 139.872 36.2632C139.239 36.0005 138.543 35.9309 137.87 36.063C137.198 36.1952 136.58 36.5233 136.095 37.0057C135.609 37.4882 135.279 38.1033 135.144 38.7734C135.009 39.4434 135.077 40.1383 135.338 40.7701C135.599 41.4018 136.043 41.9421 136.612 42.3226C137.181 42.703 137.851 42.9066 138.536 42.9075C139.135 42.9047 139.724 42.745 140.242 42.4446L151.025 50.813C150.056 52.2724 149.551 53.9891 149.575 55.7392C149.598 57.4892 150.15 59.1916 151.158 60.6243L147.879 63.8962C147.614 63.8116 147.337 63.7667 147.059 63.763C146.497 63.7634 145.947 63.9301 145.479 64.2421C145.012 64.554 144.648 64.9971 144.433 65.5155C144.218 66.0338 144.161 66.6041 144.271 67.1543C144.381 67.7045 144.652 68.2098 145.05 68.6065C145.448 69.0031 145.954 69.2733 146.506 69.3829C147.058 69.4924 147.629 69.4364 148.149 69.2219C148.669 69.0075 149.113 68.6442 149.426 68.1779C149.739 67.7117 149.906 67.1634 149.906 66.6025C149.903 66.3249 149.858 66.0494 149.773 65.7851L153.017 62.5481C154.075 63.3605 155.306 63.9205 156.614 64.1854C157.923 64.4502 159.275 64.4128 160.567 64.076C161.859 63.7393 163.056 63.1121 164.067 62.2425C165.078 61.3729 165.877 60.284 166.401 59.0592C166.925 57.8345 167.161 56.5063 167.091 55.1765C167.021 53.8467 166.646 52.5505 165.996 51.3873C165.346 50.224 164.438 49.2246 163.341 48.4656C162.244 47.7065 160.987 47.208 159.667 47.0081ZM158.322 60.1049C157.723 60.1214 157.126 60.0178 156.567 59.8003C156.008 59.5828 155.499 59.2558 155.069 58.8387C154.639 58.4215 154.297 57.9226 154.064 57.3715C153.83 56.8204 153.71 56.2282 153.71 55.63C153.71 55.0317 153.83 54.4396 154.064 53.8885C154.297 53.3373 154.639 52.8385 155.069 52.4213C155.499 52.0041 156.008 51.6772 156.567 51.4597C157.126 51.2422 157.723 51.1386 158.322 51.1551C159.484 51.1956 160.585 51.6845 161.393 52.5186C162.201 53.3527 162.653 54.4669 162.654 55.6267C162.654 56.7864 162.204 57.9011 161.397 58.7361C160.589 59.571 159.489 60.0609 158.327 60.1026" fill="#FF7A59"/>
</g>
</g>
<defs>
<clipPath id="clip0_22_365">
<rect width="234.33" height="106.5" fill="white" transform="translate(0.660156)"/>
</clipPath>
<clipPath id="clip1_22_365">
<rect width="120" height="35" fill="white" transform="translate(58 36)"/>
</clipPath>
</defs>
</svg>
