<svg width="235" height="107" viewBox="0 0 235 107" fill="none" xmlns="http://www.w3.org/2000/svg">
<g style="mix-blend-mode:luminosity" clip-path="url(#clip0_22_348)">
<g clip-path="url(#clip1_22_348)">
<path d="M60.5275 33.8116L83.543 32.0672C86.3368 31.7988 87.0685 32.0001 88.8645 33.2749L96.2481 38.5081C97.4454 39.3803 97.8445 39.6487 97.8445 40.655V69.3036C97.8445 71.1151 97.1794 72.1886 94.9177 72.3228L68.1771 73.933C66.4476 74.0001 65.6494 73.7988 64.7847 72.6582L59.3967 65.6135C58.3989 64.2717 57.9998 63.3324 57.9998 62.1918V36.6966C57.9998 35.2205 58.6649 33.9458 60.5275 33.8116Z" fill="white"/>
<path fill-rule="evenodd" clip-rule="evenodd" d="M83.543 32.0672L60.5275 33.8116C58.6649 33.9458 57.9998 35.2206 57.9998 36.6966V62.1918C57.9998 63.3324 58.3989 64.3388 59.3967 65.6135L64.7847 72.7254C65.6494 73.8659 66.5142 74.1343 68.1771 74.0001L94.9177 72.3899C97.1794 72.2557 97.8445 71.1822 97.8445 69.3707V40.6551C97.8445 39.7158 97.5119 39.4474 96.3811 38.6423C96.3146 38.5752 96.2481 38.5752 96.1816 38.5081L88.8645 33.342C87.135 32.0001 86.4033 31.8659 83.543 32.0672ZM68.7758 40.1854C66.5807 40.3196 66.1151 40.3867 64.8512 39.3132L61.7248 36.8308C61.3922 36.4953 61.5253 36.0928 62.39 36.0257L84.5408 34.4155C86.4033 34.2813 87.3346 34.8851 88.0663 35.4889L91.8578 38.2397C92.0574 38.3068 92.4565 38.7765 91.9244 38.7765L69.0419 40.1854H68.7758ZM66.2481 69.1024V44.7477C66.2481 43.6742 66.5807 43.2046 67.512 43.1375L93.7869 41.5944C94.6516 41.5273 95.0508 42.064 95.0508 43.1375V67.2909C95.0508 68.3643 94.8512 69.2365 93.4543 69.3036L68.3102 70.7797C66.9133 70.9139 66.2481 70.3771 66.2481 69.1024ZM91.0596 46.0896C91.1927 46.8276 91.0596 47.5656 90.3279 47.6327L89.1306 47.9011V65.8819C88.0663 66.4857 87.135 66.7541 86.3368 66.7541C85.0729 66.7541 84.7403 66.3516 83.7425 65.1439L75.7603 52.5305V64.6742L78.288 65.2781C78.288 65.2781 78.288 66.7541 76.2924 66.7541L70.7049 67.0896C70.5718 66.7541 70.7049 65.949 71.237 65.8148L72.7004 65.4123V49.31L70.7049 49.1088C70.5718 48.3707 70.9709 47.2973 72.1018 47.2302L78.0884 46.8276L86.3368 59.5752V48.3036L84.2082 48.0353C84.0751 47.1631 84.6738 46.4921 85.472 46.425L91.0596 46.0896Z" fill="black"/>
<path d="M115.539 61.7893V50.719H115.738L123.654 61.7893H126.182V45.4858H123.388V56.5561H123.188L115.273 45.4858H112.745V61.7893H115.539ZM133.964 61.9906C137.623 61.9906 139.818 59.5753 139.818 55.5497C139.818 51.5912 137.556 49.1088 133.964 49.1088C130.306 49.1088 128.111 51.5241 128.111 55.5497C128.044 59.5753 130.306 61.9906 133.964 61.9906ZM133.964 59.6424C132.035 59.6424 130.905 58.1663 130.905 55.5497C130.905 53.0002 132.035 51.4571 133.964 51.4571C135.893 51.4571 137.024 52.9331 137.024 55.5497C136.958 58.1663 135.893 59.6424 133.964 59.6424ZM142.346 46.4251V49.5114H140.417V51.7254H142.346V58.4347C142.346 60.85 143.477 61.7893 146.27 61.7893C146.803 61.7893 147.335 61.7222 147.734 61.6551V59.5082C147.401 59.5753 147.202 59.5753 146.803 59.5753C145.672 59.5753 145.14 59.0385 145.14 57.8309V51.7925H147.734V49.5785H145.14V46.4922H142.346V46.4251ZM149.397 61.7893H152.191V49.4443H149.397V61.7893ZM150.794 47.3644C151.725 47.3644 152.457 46.6264 152.457 45.6871C152.457 44.7478 151.725 44.0098 150.794 44.0098C149.862 44.0098 149.131 44.7478 149.131 45.6871C149.131 46.6264 149.862 47.3644 150.794 47.3644ZM159.774 61.9906C163.432 61.9906 165.627 59.5753 165.627 55.5497C165.627 51.5912 163.366 49.1088 159.774 49.1088C156.115 49.1088 153.92 51.5241 153.92 55.5497C153.854 59.5753 156.115 61.9906 159.774 61.9906ZM159.774 59.6424C157.845 59.6424 156.714 58.1663 156.714 55.5497C156.714 53.0002 157.845 51.4571 159.774 51.4571C161.703 51.4571 162.834 52.9331 162.834 55.5497C162.767 58.1663 161.703 59.6424 159.774 59.6424ZM167.29 61.7893H170.084V54.5433C170.084 52.7318 171.148 51.5912 172.745 51.5912C174.408 51.5912 175.206 52.5305 175.206 54.4091V61.7222H178V53.7382C178 50.7861 176.536 49.1088 173.809 49.1088C172.013 49.1088 170.749 49.981 170.151 51.3229H169.951V49.4443H167.29V61.7893Z" fill="black"/>
</g>
</g>
<defs>
<clipPath id="clip0_22_348">
<rect width="234.33" height="106.5" fill="white" transform="translate(0.659912)"/>
</clipPath>
<clipPath id="clip1_22_348">
<rect width="120" height="42" fill="white" transform="translate(57.9998 32)"/>
</clipPath>
</defs>
</svg>
